<svg id="Слой_3" data-name="Слой 3" xmlns="http://www.w3.org/2000/svg" viewBox="0 0 25 25">
  <title>electricity</title>
  <path d="M12.48.5a12,12,0,1,1-12,12A12,12,0,0,1,12.48.5Z" transform="translate(0.02 0)" style="fill: #bacad4;fill-opacity: 0.5;stroke: #a6b0bf;stroke-miterlimit: 10;fill-rule: evenodd"/>
  <path d="M17.47,11a.27.27,0,0,0-.24-.15H14.09l3.1-4.93a.29.29,0,0,0,0-.27A.27.27,0,0,0,17,5.49H12.73a.28.28,0,0,0-.24.15l-4,8a.3.3,0,0,0,0,.26.27.27,0,0,0,.23.12h2.72l-3,7.11a.27.27,0,0,0,.11.33.23.23,0,0,0,.14,0,.25.25,0,0,0,.2-.1l8.47-10.14A.28.28,0,0,0,17.47,11Z" transform="translate(0.02 0)" style="fill: #7e8ca3"/>
</svg>
