<svg id="Слой_4" data-name="Слой 4" xmlns="http://www.w3.org/2000/svg" viewBox="0 0 25 25">
  <title>gas</title>
  <path d="M12.48.5a12,12,0,1,1-12,12A12,12,0,0,1,12.48.5Z" transform="translate(0.02 0)" style="fill: #bacad4;fill-opacity: 0.5;stroke: #a6b0bf;stroke-miterlimit: 10;fill-rule: evenodd"/>
  <path d="M12.51,5.5A8.9,8.9,0,0,1,10,10.69C8,12.22,7.64,13,7.52,14.18a5.09,5.09,0,0,0,2.29,4.93A2.87,2.87,0,0,1,11,15.72c1.93-1.45,1.69-2.49,1.66-2.58a5.79,5.79,0,0,0,1.48,2.46c1,.89.87,2.46-.1,3.91,0,0,3.15-1.89,3.43-4.42C17.92,11,14,6.17,12.51,5.5Z" transform="translate(0.02 0)" style="fill: #7e8ca3"/>
</svg>
