<svg id="heating" xmlns="http://www.w3.org/2000/svg" viewBox="0 0 25 25">
  <title>heating</title>
  <path d="M12.48.5a12,12,0,1,1-12,12A12,12,0,0,1,12.48.5Z" transform="translate(0.02 0)" style="fill: #bacad4;fill-opacity: 0.5;stroke: #a6b0bf;stroke-miterlimit: 10;fill-rule: evenodd"/>
  <path d="M15.5,13.65V6.49a3,3,0,0,0-6,0v7.16a4.5,4.5,0,1,0,6,0ZM12.5,20a3,3,0,0,1-3-3,3,3,0,0,1,1-2.23l.5-.45V6.49a1.5,1.5,0,0,1,3,0v7.83l.5.45a3,3,0,0,1,1,2.23A3,3,0,0,1,12.5,20Z" transform="translate(0.02 0)" style="fill: #7e8ca3"/>
  <path d="M11.75,9.5h1.5v9h-1.5Z" transform="translate(0.02 0)" style="fill: #7e8ca3"/>
  <path d="M12.5,14.75A2.26,2.26,0,1,1,10.25,17,2.25,2.25,0,0,1,12.5,14.75Z" transform="translate(0.02 0)" style="fill: #7e8ca3"/>
</svg>
