<svg id="Слой_2" data-name="Слой 2" xmlns="http://www.w3.org/2000/svg" viewBox="0 0 25 25">
  <title>water</title>
  <path d="M12.48.5a12,12,0,1,1-12,12A12,12,0,0,1,12.48.5Z" transform="translate(0.02 0)" style="fill: #bacad4;fill-opacity: 0.5;stroke: #a6b0bf;stroke-miterlimit: 10;fill-rule: evenodd"/>
  <path d="M15.77,10.85C14.34,9,13,7.73,12.86,5.27a.21.21,0,0,0-.07-.17A.17.17,0,0,0,12.52,5a.25.25,0,0,0-.26.26c-3,3.29-8.21,11.63-1.72,14a5,5,0,0,0,6.82-3.58A6.45,6.45,0,0,0,15.77,10.85Zm-5.21,6.86a3.34,3.34,0,0,1-1.35-2,3.15,3.15,0,0,1-.12-1.09,14.94,14.94,0,0,1,.55-1.84,3.5,3.5,0,0,0,.7,1.45c.78.85,2.35,1.35,2.79,2.42.26.65-.78,1.21-1.21,1.35A1.69,1.69,0,0,1,10.56,17.71Z" transform="translate(0.02 0)" style="fill: #7e8ca3"/>
</svg>
